<svg version="1.1" id="Layer_1" xmlns="http://www.w3.org/2000/svg" x="0" y="0" viewBox="0 0 290.3 251.9" style="enable-background:new 0 0 290.3 251.9" xml:space="preserve"><path d="M1.9 133.7c2.3-7.6 7-14.5 15.6-19.9 11.2-7.1 25.1-9 38.2-7.6 3.8.4 8 1 11.1-1.2-.4-3.4-4.8-4.3-8.1-5-14.5-3.1-24-18.2-25.1-33-.6-9.5 1.4-19 5-27.7S44.8 20.8 51.7 14c8.2-8.1 19.2-7.5 29.8-9L113.4.4c8.2-1.2 11.8.6 17.2 6.4 8.1 8.7 20 13.7 31.8 13.3 8.4-.3 11.1 4.3 17 9.7 7.7 7.1 18.5 8.9 27.3 14.2 8.8 5.3 16.2 15.7 20 25.2 1.8 4.5 3 9.4 5.9 13.3 4.3 6.1 11.7 9.3 16.5 15 5.9 7.2 6.8 17.2 10.9 25.5 4.1 8.5 11.4 15.1 17 22.6 6.3 8.5 10.7 18.4 12.8 28.7.3 1.5.6 3.1.3 4.5-.5 2.5-2.4 4.5-4.4 6.1-6.6 5.1-12.7 10.9-21 13-3 .8-6.2 1.1-9.2 1.9-14.3 3.8-23.1 18.5-36.7 24.5-15.7 7.1-35.6 1.6-50 11.1-8.4 5.5-14.7 16-24.8 16.3-4.5.1-8.8-1.9-13.2-2.8-6.3-1.2-12.9 0-19.1-1.5-6.7-1.6-12.4-6-18.9-8.2-10.6-3.6-22.4-1.2-33.1-4.2-15.6-4.4-25.7-19.3-39.2-28.3-4.3-2.9-9.3-5.4-12.1-9.9-2.1-3.3-2.7-7.3-3.3-11.1-2.6-17-8-36.2-3.2-52z"/></svg>